<svg width="20" height="18" viewBox="0 0 20 18" fill="none" xmlns="http://www.w3.org/2000/svg">
<path fill-rule="evenodd" clip-rule="evenodd" d="M19.7401 11.74L19.8801 12.43C20.0326 13.0195 19.9082 13.6462 19.5423 14.1328C19.1764 14.6194 18.6087 14.9129 18.0001 14.93H14.1901C14.191 16.5486 12.9078 17.8761 11.2901 17.93H3.00011C2.08464 17.9148 1.22623 17.4824 0.669114 16.7558C0.112001 16.0293 -0.0828134 15.088 0.140105 14.2L0.350105 13.2C0.59429 11.8224 1.78124 10.8117 3.18011 10.79H11.1201C11.4745 10.3665 11.9979 10.1212 12.5501 10.12H17.8401C18.7741 10.1498 19.563 10.8224 19.7401 11.74ZM17.9801 13.42C18.1021 13.4155 18.2157 13.3568 18.2901 13.26C18.4209 13.128 18.4868 12.9451 18.4701 12.76L18.3301 12.07C18.303 11.8465 18.1242 11.6718 17.9001 11.65H12.6101C12.495 11.6508 12.3872 11.7065 12.3201 11.8C12.0333 12.1303 11.6175 12.32 11.1801 12.32H3.2401C2.55552 12.3367 1.98189 12.8428 1.8801 13.52L1.6701 14.52C1.56754 15.0125 1.68837 15.5252 2.0001 15.92C2.2436 16.2271 2.60854 16.4132 3.0001 16.43H11.2601C12.0649 16.3766 12.6834 15.6963 12.6601 14.89C12.6764 14.0733 13.3433 13.4198 14.1601 13.42H17.9801Z" fill="#6750A4"/>
<path fill-rule="evenodd" clip-rule="evenodd" d="M11.1001 5.00001C11.1001 7.20915 9.30924 9.00001 7.1001 9.00001C4.89096 9.00001 3.1001 7.20915 3.1001 5.00001V3.43001C3.1001 1.57433 4.60443 0.0700073 6.4601 0.0700073H7.7701C9.61405 0.0864718 11.1002 1.58598 11.1001 3.43001V5.00001ZM6.4601 1.57001C5.43285 1.57001 4.6001 2.40276 4.6001 3.43001L4.6301 5.00001C4.78969 6.25918 5.86086 7.20315 7.1301 7.20315C8.39935 7.20315 9.47051 6.25918 9.6301 5.00001V3.43001C9.6301 2.40276 8.79735 1.57001 7.7701 1.57001H6.4601Z" fill="#6750A4"/>
<path fill-rule="evenodd" clip-rule="evenodd" d="M18.6801 5.25001C18.6801 6.90686 17.337 8.25001 15.6801 8.25001C14.0233 8.25001 12.6801 6.90686 12.6801 5.25001V4.10001C12.6799 2.72372 13.784 1.60185 15.1601 1.58001H16.1601C17.5519 1.58001 18.6801 2.70825 18.6801 4.10001V5.25001ZM15.1801 3.10001C14.6278 3.10001 14.1801 3.54772 14.1801 4.10001V5.25001C14.1801 6.07843 14.8517 6.75001 15.6801 6.75001C16.5085 6.75001 17.1801 6.07843 17.1801 5.25001V4.10001C17.1801 3.54772 16.7324 3.10001 16.1801 3.10001H15.1801Z" fill="#6750A4"/>
</svg>
