<svg width="24" height="24" viewBox="0 0 24 24" fill="none" xmlns="http://www.w3.org/2000/svg">
<path fill-rule="evenodd" clip-rule="evenodd" d="M3.87012 12.5H7.37012C7.96685 12.5 8.53915 12.7371 8.96111 13.159C9.38306 13.581 9.62012 14.1533 9.62012 14.75V18.25C9.62012 18.8467 9.38306 19.419 8.96111 19.841C8.53915 20.2629 7.96685 20.5 7.37012 20.5H3.87012C2.62748 20.5 1.62012 19.4926 1.62012 18.25V14.75C1.62012 13.5074 2.62748 12.5 3.87012 12.5ZM7.37012 19C7.78433 19 8.12012 18.6642 8.12012 18.25V14.75C8.12012 14.3358 7.78433 14 7.37012 14H3.87012C3.45816 14.0054 3.1255 14.338 3.12012 14.75V18.25C3.1255 18.662 3.45816 18.9946 3.87012 19H7.37012Z" fill="#6750A4"/>
<path d="M13.6201 13.75C13.2059 13.75 12.8701 14.0858 12.8701 14.5C12.8701 14.9142 13.2059 15.25 13.6201 15.25H18.6201C19.0343 15.25 19.3701 14.9142 19.3701 14.5C19.3701 14.0858 19.0343 13.75 18.6201 13.75H13.6201Z" fill="#6750A4"/>
<path d="M21.6201 17.75H13.6201C13.2059 17.75 12.8701 18.0858 12.8701 18.5C12.8701 18.9142 13.2059 19.25 13.6201 19.25H21.6201C22.0343 19.25 22.3701 18.9142 22.3701 18.5C22.3701 18.0858 22.0343 17.75 21.6201 17.75Z" fill="#6750A4"/>
<path fill-rule="evenodd" clip-rule="evenodd" d="M19.6201 10.5H3.62012C2.51555 10.5 1.62012 9.60457 1.62012 8.5V5.5C1.62012 4.39543 2.51555 3.5 3.62012 3.5H19.6201C20.7247 3.5 21.6201 4.39543 21.6201 5.5V8.5C21.6201 9.60457 20.7247 10.5 19.6201 10.5ZM3.62012 5C3.34397 5 3.12012 5.22386 3.12012 5.5V8.5C3.12012 8.77614 3.34397 9 3.62012 9H19.6201C19.8963 9 20.1201 8.77614 20.1201 8.5V5.5C20.1201 5.22386 19.8963 5 19.6201 5H3.62012Z" fill="#6750A4"/>
</svg>
