<svg width="28" height="28" viewBox="0 0 28 28" fill="none" xmlns="http://www.w3.org/2000/svg">
<g clip-path="url(#clip0_142_2)">
<path d="M17.7142 15.9807C17.7142 18.0333 16.0526 19.6949 14 19.6949C11.9474 19.6949 10.2858 18.0333 10.2858 15.9807C10.2858 13.9281 11.9474 12.2665 14 12.2665C16.0526 12.2665 17.7142 13.9281 17.7142 15.9807ZM25.315 6.67229C26.7984 6.67229 28 7.87393 28 9.3573V16.3947V22.3626C28 23.9438 26.7179 25.2259 25.1368 25.2259H2.86324C1.28214 25.2259 0 23.9438 0 22.3626V16.3889V9.3573C0 7.87393 1.20164 6.67229 2.68501 6.67229H8.05503L8.30801 5.60289C8.69322 3.94703 10.1708 2.77414 11.8727 2.77414H16.1331C17.8349 2.77414 19.3125 3.94703 19.6977 5.60289L19.945 6.67229H25.315ZM5.6 10.5474C5.6 9.80576 4.9963 9.20207 4.25462 9.20207C3.50719 9.20207 2.90349 9.80576 2.90349 10.5474C2.90349 11.2891 3.50719 11.8928 4.24887 11.8928C4.9963 11.8986 5.6 11.2949 5.6 10.5474ZM20.6234 15.9807C20.6234 12.324 17.6567 9.3573 14 9.3573C10.3433 9.3573 7.37659 12.324 7.37659 15.9807C7.37659 19.6374 10.3433 22.6041 14 22.6041C17.6567 22.6041 20.6234 19.6374 20.6234 15.9807Z" fill="#6750A4"/>
</g>
<defs>
<clipPath id="clip0_142_2">
<rect width="28" height="28" fill="white"/>
</clipPath>
</defs>
</svg>
